<svg xmlns="http://www.w3.org/2000/svg" width="65" height="20" fill="none">
  <path fill="black" d="m4.4 11.26 1.45-5.3c.16-.57.47-.86.93-.86.45 0 .76.3.92.87l1.5 5.4 1.06-5.3c.13-.65.45-.97.95-.97.25 0 .47.09.64.26.18.17.27.38.27.62 0 .08 0 .15-.02.23 0 .07 0 .15-.03.22l-1.73 7.52c-.15.67-.5 1.01-1.04 1.01-.5 0-.84-.32-1.02-.96l-1.5-5.46-1.52 5.41c-.19.67-.55 1.01-1.1 1.01s-.9-.36-1.06-1.07L1.42 6.46a1.68 1.68 0 0 1-.05-.22V6c0-.25.09-.45.27-.62.2-.19.42-.28.67-.28.51 0 .84.33.98.98l1.1 5.18Zm9.9.92v.16c0 .38.12.67.36.86.24.18.6.27 1.09.27a5 5 0 0 0 1.84-.33.6.6 0 0 1 .48.22c.13.14.2.3.2.51 0 .1-.02.22-.08.32a.67.67 0 0 1-.2.26c-.2.16-.53.29-.96.38-.43.1-.9.15-1.41.15-1.02 0-1.8-.25-2.34-.76-.54-.5-.81-1.22-.81-2.16v-.62c0-1.01.26-1.79.78-2.32.52-.53 1.27-.8 2.26-.8 1.02 0 1.77.3 2.24.88.17.22.31.52.43.9.12.36.17.72.17 1.08 0 .38-.12.64-.36.79-.25.14-.54.2-.87.2h-2.81Zm2.37-1.2c-.04-.48-.15-.82-.33-1.01-.17-.2-.44-.3-.82-.3-.4 0-.7.1-.9.31-.19.2-.3.54-.33 1h2.38Zm4.88-2.12c.19-.17.42-.3.7-.4.28-.1.58-.14.91-.14.8 0 1.41.26 1.83.78.42.52.64 1.26.64 2.24v.56a3.5 3.5 0 0 1-.66 2.28c-.43.53-1.04.8-1.85.8a2.7 2.7 0 0 1-.95-.16c-.27-.1-.56-.27-.88-.5-.06.33-.16.52-.3.56a1.6 1.6 0 0 1-.53.08c-.29 0-.49-.1-.6-.27-.1-.2-.15-.4-.15-.64V5.82c0-.36.08-.64.24-.83a.83.83 0 0 1 .67-.29c.3 0 .53.1.69.3.16.18.24.46.24.82v3.04Zm0 2.98c.02.57.1.96.27 1.18.16.23.44.34.83.34.4 0 .68-.12.85-.35.18-.25.27-.64.27-1.17v-.38c0-.55-.08-.94-.25-1.17-.16-.24-.44-.35-.82-.35-.4 0-.69.12-.88.36-.18.24-.27.62-.27 1.16v.38Zm7.6-1.2a8.02 8.02 0 0 1-1.43-.78c-.35-.26-.6-.55-.75-.87a2.86 2.86 0 0 1-.22-1.18c0-.89.25-1.56.75-2.02.51-.47 1.26-.7 2.26-.7.48 0 .9.06 1.3.17.38.12.68.28.9.47.23.18.34.4.34.65 0 .24-.08.44-.24.61a.8.8 0 0 1-.74.23 6.05 6.05 0 0 1-.56-.24 1.93 1.93 0 0 0-.92-.23c-.38 0-.67.09-.88.26-.2.16-.3.39-.3.69 0 .2.04.37.14.5.1.14.27.26.5.4l.92.42c.5.23.94.46 1.33.7a2.5 2.5 0 0 1 1.25 2.38c0 .98-.28 1.7-.84 2.17-.54.47-1.4.7-2.57.7-.89 0-1.59-.11-2.1-.35-.51-.23-.8-.56-.9-.99a.72.72 0 0 1 .07-.46.78.78 0 0 1 .29-.35.75.75 0 0 1 .65-.12l.4.2c.46.27 1 .41 1.62.41.47 0 .83-.1 1.09-.29a1 1 0 0 0 .38-.83c0-.32-.1-.57-.29-.75a1.9 1.9 0 0 0-.7-.46l-.75-.34Zm6.74-1.9a3.08 3.08 0 0 1 1.57-.42c1.22 0 1.97.48 2.26 1.44a8.9 8.9 0 0 1 .16 1.7v2.38c0 .35-.09.63-.26.83a.83.83 0 0 1-.67.29.87.87 0 0 1-.7-.29 1.3 1.3 0 0 1-.23-.83V11.6c0-.6-.05-1.02-.14-1.25-.14-.28-.41-.41-.8-.41-.2 0-.39.03-.55.1a.72.72 0 0 0-.35.25c-.1.13-.18.31-.22.56-.05.23-.07.56-.07.97v2.02c0 .35-.08.63-.24.83a.85.85 0 0 1-.69.29.83.83 0 0 1-.67-.29 1.3 1.3 0 0 1-.24-.83V5.82c0-.36.08-.64.24-.83a.84.84 0 0 1 .67-.29c.3 0 .53.1.7.3.15.18.23.46.23.82v2.92Zm6.62-3.36c.3 0 .54.1.72.28.18.2.27.45.27.77s-.09.58-.27.79a.94.94 0 0 1-.72.28 1 1 0 0 1-.73-.28 1.1 1.1 0 0 1-.28-.79c0-.32.1-.57.28-.77a.95.95 0 0 1 .73-.28Zm-.94 8.46V9.46c0-.37.08-.64.24-.84.16-.19.38-.28.67-.28.3 0 .53.1.69.28.16.2.24.47.24.84v4.38c0 .35-.08.63-.24.83a.85.85 0 0 1-.69.29.83.83 0 0 1-.67-.29 1.3 1.3 0 0 1-.24-.83Zm5.17-1.66v.16c0 .38.12.67.36.86.24.18.6.27 1.08.27a5 5 0 0 0 1.84-.33c.2 0 .36.07.48.22a.71.71 0 0 1 .13.83.67.67 0 0 1-.2.26c-.2.16-.53.29-.97.38-.42.1-.9.15-1.4.15-1.02 0-1.8-.25-2.34-.76-.54-.5-.82-1.22-.82-2.16v-.62c0-1.01.26-1.79.79-2.32.52-.53 1.27-.8 2.25-.8 1.03 0 1.77.3 2.24.88a3.52 3.52 0 0 1 .6 1.98c.01.38-.11.64-.36.79-.24.14-.53.2-.86.2h-2.82Zm2.37-1.2c-.04-.48-.15-.82-.33-1.01-.18-.2-.45-.3-.82-.3-.4 0-.7.1-.9.31-.19.2-.3.54-.33 1h2.38Zm5.11 3.98c-.74 0-1.28-.26-1.6-.77-.17-.26-.28-.6-.35-1-.06-.41-.1-1-.1-1.77v-5.6c0-.36.09-.64.25-.83a.83.83 0 0 1 .67-.29c.3 0 .53.1.69.3.16.18.24.46.24.82v5.92c0 .39.01.69.04.9.04.21.09.37.16.48.09.1.2.19.34.24.16.06.28.17.37.32.1.14.14.32.14.54a.72.72 0 0 1-.25.53.87.87 0 0 1-.6.21Zm5.51-6.1V5.82c0-.36.08-.64.24-.83a.85.85 0 0 1 .68-.29c.3 0 .52.1.68.3.16.18.24.46.24.82v8.37c0 .29-.1.5-.28.61-.19.1-.4.16-.64.16a.7.7 0 0 1-.45-.13c-.1-.08-.17-.25-.21-.51-.35.23-.67.4-.94.5-.28.1-.6.16-.98.16-.79 0-1.4-.27-1.8-.79a3.61 3.61 0 0 1-.63-2.29v-.52c0-.99.22-1.74.67-2.26.46-.53 1.1-.8 1.94-.8a2 2 0 0 1 1.48.54Zm-.01 2.6c0-.3-.02-.54-.07-.72a.96.96 0 0 0-.19-.45c-.18-.24-.46-.35-.85-.35-.4 0-.67.12-.84.36-.17.25-.26.64-.26 1.19v.35c0 .53.09.92.26 1.17.17.23.44.35.83.35.4 0 .68-.12.86-.35.18-.25.27-.64.27-1.17l-.01-.38ZM1 18a1 1 0 1 0 0 2v-2Zm23.63 0H1v2h23.63v-2ZM63.02 2a1 1 0 1 0 0-2v2ZM25.6 0h-1v2h1V0ZM63 0H25.6v2H63V0Z"/>
</svg>
